[Header]
# KeyWord<space>Value<CR>FileType htr
DataType HTRS
FileVersion 1.0
NumSegments 32
NumFrames 5
DataFrameRate 24
EulerRotationOrder XYZ
CalibrationUnits m
RotationUnits Degrees
GlobalAxisofGravity Z
BoneLengthAxis Z
ScaleFactor 1.0
[SegmentNames&Hierarchy]
# ObjectName<tab>ParentObjectName<CR>
pelvis	GLOBAL
spine01	pelvis
spine02	spine01
spine03	spine02
neck	spine03
head	neck
Collar_left	spine03
shoulder_up_left	Collar_left
bicep_up_left	shoulder_up_left
forearm_up_left	bicep_up_left
hand_up_left	forearm_up_left
shoulder_down_left	Collar_left
bicep_down_left	shoulder_down_left
forearm_down_left	bicep_down_left
hand_down_left	forearm_down_left
Collar_right	spine03
shoulder_up_right	Collar_right
bicep_up_right	shoulder_up_right
forearm_up_right	bicep_up_right
hand_up_right	forearm_up_right
shoulder_down_right	Collar_right
bicep_down_right	shoulder_down_right
forearm_down_right	bicep_down_right
hand_down_right	forearm_down_right
hip_left	pelvis
thigh_left	hip_left
shin_left	thigh_left
foot_left	shin_left
hip_right	pelvis
thigh_right	hip_right
shin_right	thigh_right
foot_right	shin_right
[BasePosition]
# ObjectName<tab>Tx<tab>Ty<tab>Tz<tab>Rx<tab>Ry<tab>Rz<tab>BoneLength<CR>
pelvis	0.000000	-0.438872	6.292980	90.000003	-0.000000	0.000000	1.677268
spine01	0.000000	1.677268	0.000000	0.000000	-0.000000	0.000000	2.370449
spine02	0.000000	2.370449	0.000000	0.000000	-0.000000	0.000000	2.680865
spine03	0.000000	2.680865	0.000000	0.000000	-0.000000	0.000000	3.160599
neck	0.000000	3.160599	0.000000	0.000000	-0.000000	0.000000	1.269882
head	0.000000	1.269882	0.000000	0.000000	0.000014	0.000000	4.176504
Collar_left	0.000000	3.160599	0.000000	21.069689	1.138138	109.250822	2.543778
shoulder_up_left	0.000001	2.543777	0.000000	-20.742461	-3.950507	-7.147224	2.341869
bicep_up_left	-0.000001	2.341868	0.000000	4.293160	0.027559	-5.998107	4.071239
forearm_up_left	0.000000	4.071239	-0.000000	-8.968416	-0.165229	-2.037328	3.736216
hand_up_left	0.000000	3.736216	0.000000	-0.780378	-0.284650	4.522557	2.141806
shoulder_down_left	0.000001	2.543777	0.000000	-11.374732	11.433438	33.097546	3.448410
bicep_down_left	-0.000001	3.448409	-0.000000	-0.711867	-1.315530	-6.783924	3.064684
forearm_down_left	0.000001	3.064684	0.000000	-17.686662	0.165761	1.581994	3.587720
hand_down_left	0.000000	3.587720	0.000000	11.694505	-0.524996	2.534701	2.862190
Collar_right	0.000000	3.160599	0.000000	21.069689	-1.138138	-109.250822	2.543778
shoulder_up_right	-0.000001	2.543777	0.000000	-20.742461	3.950507	7.147224	2.341869
bicep_up_right	0.000001	2.341868	0.000000	4.293160	-0.027559	5.998107	4.071239
forearm_up_right	0.000000	4.071239	-0.000000	-8.968416	0.165229	2.037328	3.736216
hand_up_right	0.000000	3.736216	0.000000	-0.780378	0.284650	-4.522557	2.141806
shoulder_down_right	-0.000001	2.543777	0.000000	-11.374732	-11.433438	-33.097546	3.448410
bicep_down_right	0.000001	3.448409	-0.000000	-0.711867	1.315530	6.783924	3.064684
forearm_down_right	-0.000001	3.064684	0.000000	-17.686662	-0.165761	-1.581994	3.587720
hand_down_right	0.000000	3.587720	0.000000	11.694505	0.524996	-2.534701	2.862190
hip_left	0.000000	-0.000003	0.000000	-96.241914	89.999996	0.000000	2.616231
thigh_left	0.000000	2.616231	0.000000	-73.061577	0.000001	0.000006	2.153898
shin_left	0.000000	2.153898	0.000000	-11.660560	0.342853	1.646302	2.782515
foot_left	0.000000	2.782514	0.000000	0.241543	0.154340	-77.422202	3.370008
hip_right	0.000000	-0.000003	0.000000	-96.241914	-89.999996	0.000000	2.616231
thigh_right	-0.000000	2.616231	0.000000	-73.061577	-0.000001	-0.000006	2.153898
shin_right	0.000000	2.153898	0.000000	-11.660560	-0.342853	-1.646302	2.782515
foot_right	-0.000000	2.782514	0.000000	0.241543	-0.154340	77.422202	3.370008
[pelvis]
# Tx<tab>Ty<tab>Tz<tab>Rx<tab>Ry<tab>Rz<tab>BoneScaleFactor<CR>
1	0.000000	0.000000	0.000000	0.000000	-0.000000	0.000000	1.000000
2	0.000000	0.000000	0.000000	0.000000	-0.000000	0.000000	1.000000
3	0.000000	0.000000	0.000000	0.000000	-0.000000	0.000000	1.000000
4	0.000000	0.000000	0.000000	0.000000	-0.000000	0.000000	1.000000
5	0.000000	0.000000	0.000000	0.000000	-0.000000	0.000000	1.000000
[spine01]
# Tx<tab>Ty<tab>Tz<tab>Rx<tab>Ry<tab>Rz<tab>BoneScaleFactor<CR>
1	0.000000	0.000000	0.000000	0.000000	-0.000000	0.000000	1.000000
2	0.000000	0.000000	0.000000	-0.060198	-0.000000	0.000000	1.000000
3	0.000000	0.000000	0.000000	-0.235126	-0.000000	0.000000	1.000000
4	0.000000	0.000000	0.000000	-0.516286	-0.000000	0.000000	1.000000
5	0.000000	0.000000	0.000000	-0.895178	-0.000000	0.000000	1.000000
[spine02]
# Tx<tab>Ty<tab>Tz<tab>Rx<tab>Ry<tab>Rz<tab>BoneScaleFactor<CR>
1	0.000000	0.000000	0.000000	0.000000	-0.000000	0.000000	1.000000
2	0.000000	0.000000	0.000000	-0.048198	-0.000000	0.000000	1.000000
3	0.000000	0.000000	0.000000	-0.188254	-0.000000	0.000000	1.000000
4	0.000000	0.000000	0.000000	-0.413366	-0.000000	0.000000	1.000000
5	0.000000	0.000000	0.000000	-0.716728	-0.000000	0.000000	1.000000
[spine03]
# Tx<tab>Ty<tab>Tz<tab>Rx<tab>Ry<tab>Rz<tab>BoneScaleFactor<CR>
1	0.000000	0.000000	0.000000	0.000000	-0.000000	0.000000	1.000000
2	0.000000	0.000000	0.000000	-0.057061	-0.000000	0.000000	1.000000
3	0.000000	0.000000	0.000000	-0.222872	-0.000000	0.000000	1.000000
4	0.000000	0.000000	0.000000	-0.489379	-0.000000	0.000000	1.000000
5	0.000000	0.000000	0.000000	-0.848525	-0.000000	0.000000	1.000000
[neck]
# Tx<tab>Ty<tab>Tz<tab>Rx<tab>Ry<tab>Rz<tab>BoneScaleFactor<CR>
1	0.000000	0.000000	0.000000	0.000000	-0.000000	0.000000	1.000000
2	0.000000	0.000000	0.000000	0.000000	-0.000000	0.000000	1.000000
3	0.000000	0.000000	0.000000	0.000000	-0.000000	0.000000	1.000000
4	0.000000	0.000000	0.000000	0.000000	-0.000000	0.000000	1.000000
5	0.000000	0.000000	0.000000	0.000000	-0.000000	0.000000	1.000000
[head]
# Tx<tab>Ty<tab>Tz<tab>Rx<tab>Ry<tab>Rz<tab>BoneScaleFactor<CR>
1	0.000000	0.000000	0.000000	0.000000	-0.000000	0.000000	1.000000
2	0.000000	0.000000	0.000000	0.000000	-0.000000	0.000000	1.000000
3	0.000000	0.000000	0.000000	0.000000	-0.000000	0.000000	1.000000
4	0.000000	0.000000	0.000000	0.000000	-0.000000	0.000000	1.000000
5	0.000000	0.000000	0.000000	0.000000	-0.000000	0.000000	1.000000
[Collar_left]
# Tx<tab>Ty<tab>Tz<tab>Rx<tab>Ry<tab>Rz<tab>BoneScaleFactor<CR>
1	0.000000	0.000000	0.000000	0.000000	-0.000000	0.000000	1.000000
2	0.000000	0.000000	0.000000	0.000000	-0.000000	0.000000	1.000000
3	0.000000	0.000000	0.000000	0.000000	-0.000000	0.000000	1.000000
4	0.000000	0.000000	0.000000	0.000000	-0.000000	0.000000	1.000000
5	0.000000	0.000000	0.000000	0.000000	-0.000000	0.000000	1.000000
[shoulder_up_left]
# Tx<tab>Ty<tab>Tz<tab>Rx<tab>Ry<tab>Rz<tab>BoneScaleFactor<CR>
1	0.000000	0.000000	0.000000	0.000000	-0.000000	0.000000	1.000000
2	0.000000	0.000000	0.000000	-0.007841	-0.030046	-0.149701	1.000000
3	0.000000	0.000000	0.000000	-0.030627	-0.117355	-0.584714	1.000000
4	0.000000	0.000000	0.000000	-0.067250	-0.257686	-1.283905	1.000000
5	0.000000	0.000000	0.000000	-0.116604	-0.446798	-2.226140	1.000000
[bicep_up_left]
# Tx<tab>Ty<tab>Tz<tab>Rx<tab>Ry<tab>Rz<tab>BoneScaleFactor<CR>
1	0.000000	0.000000	0.000000	0.000000	-0.000000	0.000000	1.000000
2	0.000000	0.000000	0.000000	0.000000	-0.000000	0.000000	1.000000
3	0.000000	0.000000	0.000000	0.000000	-0.000000	0.000000	1.000000
4	0.000000	0.000000	0.000000	0.000000	-0.000000	0.000000	1.000000
5	0.000000	0.000000	0.000000	0.000000	-0.000000	0.000000	1.000000
[forearm_up_left]
# Tx<tab>Ty<tab>Tz<tab>Rx<tab>Ry<tab>Rz<tab>BoneScaleFactor<CR>
1	0.000000	0.000000	0.000000	0.000000	-0.000000	0.000000	1.000000
2	0.000000	0.000000	0.000000	-0.051056	-0.040915	-0.057367	1.000000
3	0.000000	0.000000	0.000000	-0.199420	-0.159808	-0.224068	1.000000
4	0.000000	0.000000	0.000000	-0.437883	-0.350903	-0.492004	1.000000
5	0.000000	0.000000	0.000000	-0.759238	-0.608424	-0.853077	1.000000
[hand_up_left]
# Tx<tab>Ty<tab>Tz<tab>Rx<tab>Ry<tab>Rz<tab>BoneScaleFactor<CR>
1	0.000000	0.000000	0.000000	0.000000	-0.000000	0.000000	1.000000
2	0.000000	0.000000	0.000000	0.003180	-0.134908	0.007813	1.000000
3	0.000000	0.000000	0.000000	0.012421	-0.526935	0.030518	1.000000
4	0.000000	0.000000	0.000000	0.027273	-1.157035	0.067011	1.000000
5	0.000000	0.000000	0.000000	0.047288	-2.006163	0.116188	1.000000
[shoulder_down_left]
# Tx<tab>Ty<tab>Tz<tab>Rx<tab>Ry<tab>Rz<tab>BoneScaleFactor<CR>
1	0.000000	0.000000	0.000000	0.000000	-0.000000	0.000000	1.000000
2	0.000000	0.000000	0.000000	0.000000	-0.000000	0.000000	1.000000
3	0.000000	0.000000	0.000000	0.000000	-0.000000	0.000000	1.000000
4	0.000000	0.000000	0.000000	0.000000	-0.000000	0.000000	1.000000
5	0.000000	0.000000	0.000000	0.000000	-0.000000	0.000000	1.000000
[bicep_down_left]
# Tx<tab>Ty<tab>Tz<tab>Rx<tab>Ry<tab>Rz<tab>BoneScaleFactor<CR>
1	0.000000	0.000000	0.000000	0.000000	-0.000000	0.000000	1.000000
2	0.000000	0.000000	0.000000	-0.060815	0.033390	-0.094243	1.000000
3	0.000000	0.000000	0.000000	-0.237536	0.130419	-0.368101	1.000000
4	0.000000	0.000000	0.000000	-0.521577	0.286372	-0.808270	1.000000
5	0.000000	0.000000	0.000000	-0.904353	0.496535	-1.401446	1.000000
[forearm_down_left]
# Tx<tab>Ty<tab>Tz<tab>Rx<tab>Ry<tab>Rz<tab>BoneScaleFactor<CR>
1	0.000000	0.000000	0.000000	0.000000	-0.000000	0.000000	1.000000
2	0.000000	0.000000	0.000000	-0.066678	0.063102	-0.084017	1.000000
3	0.000000	0.000000	0.000000	-0.260435	0.246471	-0.328160	1.000000
4	0.000000	0.000000	0.000000	-0.571858	0.541197	-0.720569	1.000000
5	0.000000	0.000000	0.000000	-0.991534	0.938371	-1.249382	1.000000
[hand_down_left]
# Tx<tab>Ty<tab>Tz<tab>Rx<tab>Ry<tab>Rz<tab>BoneScaleFactor<CR>
1	0.000000	0.000000	0.000000	0.000000	-0.000000	0.000000	1.000000
2	0.000000	0.000000	0.000000	0.000000	-0.000000	0.000000	1.000000
3	0.000000	0.000000	0.000000	0.000000	-0.000000	0.000000	1.000000
4	0.000000	0.000000	0.000000	0.000000	-0.000000	0.000000	1.000000
5	0.000000	0.000000	0.000000	0.000000	-0.000000	0.000000	1.000000
[Collar_right]
# Tx<tab>Ty<tab>Tz<tab>Rx<tab>Ry<tab>Rz<tab>BoneScaleFactor<CR>
1	0.000000	0.000000	0.000000	0.000000	-0.000000	0.000000	1.000000
2	0.000000	0.000000	0.000000	0.000000	-0.000000	0.000000	1.000000
3	0.000000	0.000000	0.000000	0.000000	-0.000000	0.000000	1.000000
4	0.000000	0.000000	0.000000	0.000000	-0.000000	0.000000	1.000000
5	0.000000	0.000000	0.000000	0.000000	-0.000000	0.000000	1.000000
[shoulder_up_right]
# Tx<tab>Ty<tab>Tz<tab>Rx<tab>Ry<tab>Rz<tab>BoneScaleFactor<CR>
1	0.000000	0.000000	0.000000	0.000000	-0.000000	0.000000	1.000000
2	0.000000	0.000000	0.000000	0.008793	0.024415	0.141712	1.000000
3	0.000000	0.000000	0.000000	0.034345	0.095361	0.553510	1.000000
4	0.000000	0.000000	0.000000	0.075414	0.209392	1.215389	1.000000
5	0.000000	0.000000	0.000000	0.130758	0.363060	2.107341	1.000000
[bicep_up_right]
# Tx<tab>Ty<tab>Tz<tab>Rx<tab>Ry<tab>Rz<tab>BoneScaleFactor<CR>
1	0.000000	0.000000	0.000000	0.000000	-0.000000	0.000000	1.000000
2	0.000000	0.000000	0.000000	0.000000	-0.000000	0.000000	1.000000
3	0.000000	0.000000	0.000000	0.000000	-0.000000	0.000000	1.000000
4	0.000000	0.000000	0.000000	0.000000	-0.000000	0.000000	1.000000
5	0.000000	0.000000	0.000000	0.000000	-0.000000	0.000000	1.000000
[forearm_up_right]
# Tx<tab>Ty<tab>Tz<tab>Rx<tab>Ry<tab>Rz<tab>BoneScaleFactor<CR>
1	0.000000	0.000000	0.000000	0.000000	-0.000000	0.000000	1.000000
2	0.000000	0.000000	0.000000	-0.069110	0.067220	0.079011	1.000000
3	0.000000	0.000000	0.000000	-0.269937	0.262552	0.308607	1.000000
4	0.000000	0.000000	0.000000	-0.592722	0.576506	0.677635	1.000000
5	0.000000	0.000000	0.000000	-1.027710	0.999594	1.174939	1.000000
[hand_up_right]
# Tx<tab>Ty<tab>Tz<tab>Rx<tab>Ry<tab>Rz<tab>BoneScaleFactor<CR>
1	0.000000	0.000000	0.000000	0.000000	-0.000000	0.000000	1.000000
2	0.000000	0.000000	0.000000	-0.031804	0.137314	-0.027575	1.000000
3	0.000000	0.000000	0.000000	-0.124225	0.536332	-0.107703	1.000000
4	0.000000	0.000000	0.000000	-0.272770	1.177670	-0.236492	1.000000
5	0.000000	0.000000	0.000000	-0.472951	2.041940	-0.410050	1.000000
[shoulder_down_right]
# Tx<tab>Ty<tab>Tz<tab>Rx<tab>Ry<tab>Rz<tab>BoneScaleFactor<CR>
1	0.000000	0.000000	0.000000	0.000000	-0.000000	0.000000	1.000000
2	0.000000	0.000000	0.000000	0.000000	-0.000000	0.000000	1.000000
3	0.000000	0.000000	0.000000	0.000000	-0.000000	0.000000	1.000000
4	0.000000	0.000000	0.000000	0.000000	-0.000000	0.000000	1.000000
5	0.000000	0.000000	0.000000	0.000000	-0.000000	0.000000	1.000000
[bicep_down_right]
# Tx<tab>Ty<tab>Tz<tab>Rx<tab>Ry<tab>Rz<tab>BoneScaleFactor<CR>
1	0.000000	0.000000	0.000000	0.000000	-0.000000	0.000000	1.000000
2	0.000000	0.000000	0.000000	-0.076481	-0.036632	0.116943	1.000000
3	0.000000	0.000000	0.000000	-0.298724	-0.143079	0.456767	1.000000
4	0.000000	0.000000	0.000000	-0.655934	-0.314170	1.002962	1.000000
5	0.000000	0.000000	0.000000	-1.137312	-0.544734	1.739017	1.000000
[forearm_down_right]
# Tx<tab>Ty<tab>Tz<tab>Rx<tab>Ry<tab>Rz<tab>BoneScaleFactor<CR>
1	0.000000	0.000000	0.000000	0.000000	-0.000000	0.000000	1.000000
2	0.000000	0.000000	0.000000	-0.041148	-0.045363	0.053229	1.000000
3	0.000000	0.000000	0.000000	-0.160721	-0.177182	0.207908	1.000000
4	0.000000	0.000000	0.000000	-0.352908	-0.389054	0.456521	1.000000
5	0.000000	0.000000	0.000000	-0.611901	-0.674573	0.791554	1.000000
[hand_down_right]
# Tx<tab>Ty<tab>Tz<tab>Rx<tab>Ry<tab>Rz<tab>BoneScaleFactor<CR>
1	0.000000	0.000000	0.000000	0.000000	-0.000000	0.000000	1.000000
2	0.000000	0.000000	0.000000	0.000000	-0.000000	0.000000	1.000000
3	0.000000	0.000000	0.000000	0.000000	-0.000000	0.000000	1.000000
4	0.000000	0.000000	0.000000	0.000000	-0.000000	0.000000	1.000000
5	0.000000	0.000000	0.000000	0.000000	-0.000000	0.000000	1.000000
[hip_left]
# Tx<tab>Ty<tab>Tz<tab>Rx<tab>Ry<tab>Rz<tab>BoneScaleFactor<CR>
1	0.000000	0.000000	0.000000	0.000000	-0.000000	0.000000	1.000000
2	0.000000	0.000000	0.000000	0.000000	-0.000000	0.000000	1.000000
3	0.000000	0.000000	0.000000	0.000000	-0.000000	0.000000	1.000000
4	0.000000	0.000000	0.000000	0.000000	-0.000000	0.000000	1.000000
5	0.000000	0.000000	0.000000	0.000000	-0.000000	0.000000	1.000000
[thigh_left]
# Tx<tab>Ty<tab>Tz<tab>Rx<tab>Ry<tab>Rz<tab>BoneScaleFactor<CR>
1	0.000000	0.000000	0.000000	0.000000	-0.000000	0.000000	1.000000
2	0.000000	0.000000	0.000000	0.000000	-0.000000	0.000000	1.000000
3	0.000000	0.000000	0.000000	0.000000	-0.000000	0.000000	1.000000
4	0.000000	0.000000	0.000000	0.000000	-0.000000	0.000000	1.000000
5	0.000000	0.000000	0.000000	0.000000	-0.000000	0.000000	1.000000
[shin_left]
# Tx<tab>Ty<tab>Tz<tab>Rx<tab>Ry<tab>Rz<tab>BoneScaleFactor<CR>
1	0.000000	0.000000	0.000000	0.000000	-0.000000	0.000000	1.000000
2	0.000000	0.000000	0.000000	0.000000	-0.000000	0.000000	1.000000
3	0.000000	0.000000	0.000000	0.000000	-0.000000	0.000000	1.000000
4	0.000000	0.000000	0.000000	0.000000	-0.000000	0.000000	1.000000
5	0.000000	0.000000	0.000000	0.000000	-0.000000	0.000000	1.000000
[foot_left]
# Tx<tab>Ty<tab>Tz<tab>Rx<tab>Ry<tab>Rz<tab>BoneScaleFactor<CR>
1	0.000000	0.000000	0.000000	0.000000	-0.000000	0.000000	1.000000
2	0.000000	0.000000	0.000000	0.000000	-0.000000	0.000000	1.000000
3	0.000000	0.000000	0.000000	0.000000	-0.000000	0.000000	1.000000
4	0.000000	0.000000	0.000000	0.000000	-0.000000	0.000000	1.000000
5	0.000000	0.000000	0.000000	0.000000	-0.000000	0.000000	1.000000
[hip_right]
# Tx<tab>Ty<tab>Tz<tab>Rx<tab>Ry<tab>Rz<tab>BoneScaleFactor<CR>
1	0.000000	0.000000	0.000000	0.000000	-0.000000	0.000000	1.000000
2	0.000000	0.000000	0.000000	0.000000	-0.000000	0.000000	1.000000
3	0.000000	0.000000	0.000000	0.000000	-0.000000	0.000000	1.000000
4	0.000000	0.000000	0.000000	0.000000	-0.000000	0.000000	1.000000
5	0.000000	0.000000	0.000000	0.000000	-0.000000	0.000000	1.000000
[thigh_right]
# Tx<tab>Ty<tab>Tz<tab>Rx<tab>Ry<tab>Rz<tab>BoneScaleFactor<CR>
1	0.000000	0.000000	0.000000	0.000000	-0.000000	0.000000	1.000000
2	0.000000	0.000000	0.000000	0.000000	-0.000000	0.000000	1.000000
3	0.000000	0.000000	0.000000	0.000000	-0.000000	0.000000	1.000000
4	0.000000	0.000000	0.000000	0.000000	-0.000000	0.000000	1.000000
5	0.000000	0.000000	0.000000	0.000000	-0.000000	0.000000	1.000000
[shin_right]
# Tx<tab>Ty<tab>Tz<tab>Rx<tab>Ry<tab>Rz<tab>BoneScaleFactor<CR>
1	0.000000	0.000000	0.000000	0.000000	-0.000000	0.000000	1.000000
2	0.000000	0.000000	0.000000	0.000000	-0.000000	0.000000	1.000000
3	0.000000	0.000000	0.000000	0.000000	-0.000000	0.000000	1.000000
4	0.000000	0.000000	0.000000	0.000000	-0.000000	0.000000	1.000000
5	0.000000	0.000000	0.000000	0.000000	-0.000000	0.000000	1.000000
[foot_right]
# Tx<tab>Ty<tab>Tz<tab>Rx<tab>Ry<tab>Rz<tab>BoneScaleFactor<CR>
1	0.000000	0.000000	0.000000	0.000000	-0.000000	0.000000	1.000000
2	0.000000	0.000000	0.000000	0.000000	-0.000000	0.000000	1.000000
3	0.000000	0.000000	0.000000	0.000000	-0.000000	0.000000	1.000000
4	0.000000	0.000000	0.000000	0.000000	-0.000000	0.000000	1.000000
5	0.000000	0.000000	0.000000	0.000000	-0.000000	0.000000	1.000000
[EndOfFile]
